<?xml version="1.0" encoding="UTF-8"?>
<svg id="Layer_1" xmlns="http://www.w3.org/2000/svg" version="1.1" viewBox="0 0 24 24">
  <!-- Generator: Adobe Illustrator 30.0.0, SVG Export Plug-In . SVG Version: 2.1.1 Build 123)  -->
  <defs>
    <style>
      .st0 {
        fill: #12161c;
      }

      .st1 {
        fill: #0052ff;
      }
    </style>
  </defs>
  <path class="st0" d="M5.26,11.43c0-.13.03-.26.07-.38.05-.12.12-.23.21-.32.09-.09.2-.16.32-.21s.25-.07.38-.07h1.63c.26,0,.51.11.69.29s.29.43.29.69v6.16c.18-.05.42-.11.68-.17.18-.04.34-.14.45-.29.11-.14.18-.32.18-.51v-7.64c0-.26.1-.51.29-.69.18-.18.43-.29.69-.29h1.63c.26,0,.51.1.69.29.18.18.29.43.29.69v7.09s.41-.17.81-.33c.15-.06.27-.17.36-.3.09-.13.14-.29.14-.45V6.55c0-.26.1-.51.29-.69s.43-.29.69-.29h1.63c.26,0,.51.1.69.29.18.18.29.43.29.69v6.96c1.41-1.02,2.85-2.26,3.98-3.74.16-.22.27-.47.32-.74.04-.27.02-.54-.07-.8-.53-1.51-1.36-2.9-2.46-4.08-1.09-1.17-2.42-2.1-3.89-2.73-1.47-.63-3.06-.95-4.67-.93-1.6.02-3.19.37-4.64,1.04-1.46.67-2.76,1.63-3.83,2.83-1.07,1.2-1.87,2.61-2.36,4.13-.49,1.53-.66,3.14-.49,4.73.17,1.59.67,3.14,1.47,4.53.14.24.34.44.59.56.25.13.52.18.8.16.31-.03.69-.07,1.15-.12.2-.02.38-.12.52-.27.13-.15.21-.34.21-.54v-6.11"/>
  <path class="st1" d="M5.23,21.3c1.72,1.25,3.75,2,5.87,2.17,2.12.17,4.24-.25,6.14-1.22,1.89-.96,3.49-2.44,4.6-4.25,1.11-1.81,1.7-3.9,1.7-6.02,0-.27-.01-.53-.03-.79-4.21,6.28-11.99,9.22-18.27,10.11Z"/>
</svg>